# xmcd
#
# Track frame offsets: 
#        150
#        25502
#        51547
#        70125
#        103137
#        123692
#        145260
#        168167
#        182895
#        209242
#
# Disc length: 3248 seconds
#
# Revision: 2
# Processed by: cddbd v1.5.2PL0 Copyright (c) Steve Scherf et al.
# Submitted via: ExactAudioCopy v0.99pb5
#
DISCID=9b0cae0a
DTITLE=Hank Jones - Standard Collection Vol.1
DYEAR=1988
DGENRE=Jazz
TTITLE0=After You've Gone
TTITLE1=Summertime
TTITLE2=The Days of Wine and Roses
TTITLE3=As Time Goes By
TTITLE4=You'd Be So Nice to Come Home to
TTITLE5=Summer Knows
TTITLE6=Georgia on My Mind
TTITLE7=Prelude to a Kiss
TTITLE8=St. Louis Blues
TTITLE9=Danny Boy
EXTD=YEAR: 1988
EXTT0=
EXTT1=
EXTT2=
EXTT3=
EXTT4=
EXTT5=
EXTT6=
EXTT7=
EXTT8=
EXTT9=
PLAYORDER=
